<mxfile host="app.diagrams.net" agent="Mozilla/5.0 (Windows NT 10.0; Win64; x64) AppleWebKit/537.36 (KHTML, like Gecko) Chrome/130.0.0.0 Safari/537.36" version="24.8.0">
  <diagram name="Side-1" id="s_yIKlSNMNsuDeTVrUpv">
    <mxGraphModel dx="1646" dy="1595" grid="1" gridSize="10" guides="1" tooltips="1" connect="1" arrows="1" fold="1" page="1" pageScale="1" pageWidth="827" pageHeight="1169" math="0" shadow="0">
      <root>
        <mxCell id="0" />
        <mxCell id="1" parent="0" />
        <mxCell id="L4X4qG2Bdi_U11OIQOEf-2" value="" style="verticalLabelPosition=bottom;shadow=0;dashed=0;align=center;html=1;verticalAlign=top;shape=mxgraph.electrical.abstract.dac;rotation=-180;" parent="1" vertex="1">
          <mxGeometry x="761.5" y="480" width="140" height="76" as="geometry" />
        </mxCell>
        <mxCell id="L4X4qG2Bdi_U11OIQOEf-3" value="&lt;font style=&quot;font-size: 18px;&quot;&gt;Differential&lt;br&gt;DAC&lt;/font&gt;" style="text;html=1;align=center;verticalAlign=middle;resizable=0;points=[];autosize=1;strokeColor=none;fillColor=none;" parent="1" vertex="1">
          <mxGeometry x="791.5" y="488.75" width="110" height="60" as="geometry" />
        </mxCell>
        <mxCell id="L4X4qG2Bdi_U11OIQOEf-4" value="" style="verticalLabelPosition=bottom;shadow=0;dashed=0;align=center;html=1;verticalAlign=top;shape=mxgraph.electrical.logic_gates.lowpass_filter;" parent="1" vertex="1">
          <mxGeometry x="701.5" y="410" width="52" height="46" as="geometry" />
        </mxCell>
        <mxCell id="L4X4qG2Bdi_U11OIQOEf-5" value="" style="verticalLabelPosition=bottom;shadow=0;dashed=0;align=center;html=1;verticalAlign=top;shape=mxgraph.electrical.logic_gates.lowpass_filter;" parent="1" vertex="1">
          <mxGeometry x="701.5" y="580" width="52" height="46" as="geometry" />
        </mxCell>
        <mxCell id="L4X4qG2Bdi_U11OIQOEf-6" style="edgeStyle=orthogonalEdgeStyle;rounded=0;orthogonalLoop=1;jettySize=auto;html=1;entryX=0.816;entryY=0.758;entryDx=0;entryDy=0;entryPerimeter=0;endArrow=none;endFill=0;" parent="1" source="L4X4qG2Bdi_U11OIQOEf-4" target="L4X4qG2Bdi_U11OIQOEf-2" edge="1">
          <mxGeometry relative="1" as="geometry" />
        </mxCell>
        <mxCell id="L4X4qG2Bdi_U11OIQOEf-7" style="edgeStyle=orthogonalEdgeStyle;rounded=0;orthogonalLoop=1;jettySize=auto;html=1;entryX=0.838;entryY=0.273;entryDx=0;entryDy=0;entryPerimeter=0;endArrow=none;endFill=0;" parent="1" source="L4X4qG2Bdi_U11OIQOEf-5" target="L4X4qG2Bdi_U11OIQOEf-2" edge="1">
          <mxGeometry relative="1" as="geometry" />
        </mxCell>
        <mxCell id="L4X4qG2Bdi_U11OIQOEf-9" value="" style="verticalLabelPosition=bottom;shadow=0;dashed=0;align=center;html=1;verticalAlign=top;shape=mxgraph.electrical.abstract.controlled_amplifier;direction=west;" parent="1" vertex="1">
          <mxGeometry x="601.5" y="402" width="70" height="62" as="geometry" />
        </mxCell>
        <mxCell id="L4X4qG2Bdi_U11OIQOEf-14" style="edgeStyle=orthogonalEdgeStyle;rounded=0;orthogonalLoop=1;jettySize=auto;html=1;exitX=0.6;exitY=0.919;exitDx=0;exitDy=0;exitPerimeter=0;entryX=0.6;entryY=0.925;entryDx=0;entryDy=0;entryPerimeter=0;endArrow=none;endFill=0;" parent="1" source="L4X4qG2Bdi_U11OIQOEf-10" target="L4X4qG2Bdi_U11OIQOEf-9" edge="1">
          <mxGeometry relative="1" as="geometry">
            <mxPoint x="340" y="490.0000000000001" as="targetPoint" />
            <Array as="points">
              <mxPoint x="629" y="520" />
              <mxPoint x="420" y="520" />
              <mxPoint x="420" y="380" />
              <mxPoint x="629" y="380" />
            </Array>
          </mxGeometry>
        </mxCell>
        <mxCell id="L4X4qG2Bdi_U11OIQOEf-10" value="" style="verticalLabelPosition=bottom;shadow=0;dashed=0;align=center;html=1;verticalAlign=top;shape=mxgraph.electrical.abstract.controlled_amplifier;direction=west;" parent="1" vertex="1">
          <mxGeometry x="601.5" y="572" width="70" height="62" as="geometry" />
        </mxCell>
        <mxCell id="L4X4qG2Bdi_U11OIQOEf-11" style="edgeStyle=orthogonalEdgeStyle;rounded=0;orthogonalLoop=1;jettySize=auto;html=1;entryX=0;entryY=0.5;entryDx=0;entryDy=0;entryPerimeter=0;endArrow=none;endFill=0;" parent="1" source="L4X4qG2Bdi_U11OIQOEf-10" target="L4X4qG2Bdi_U11OIQOEf-5" edge="1">
          <mxGeometry relative="1" as="geometry" />
        </mxCell>
        <mxCell id="L4X4qG2Bdi_U11OIQOEf-12" style="edgeStyle=orthogonalEdgeStyle;rounded=0;orthogonalLoop=1;jettySize=auto;html=1;entryX=0;entryY=0.5;entryDx=0;entryDy=0;entryPerimeter=0;endArrow=none;endFill=0;" parent="1" source="L4X4qG2Bdi_U11OIQOEf-9" target="L4X4qG2Bdi_U11OIQOEf-4" edge="1">
          <mxGeometry relative="1" as="geometry" />
        </mxCell>
        <mxCell id="L4X4qG2Bdi_U11OIQOEf-26" style="edgeStyle=orthogonalEdgeStyle;rounded=0;orthogonalLoop=1;jettySize=auto;html=1;exitX=1;exitY=0.8;exitDx=0;exitDy=0;entryX=1;entryY=0.8;entryDx=0;entryDy=0;endArrow=none;endFill=0;" parent="1" source="L4X4qG2Bdi_U11OIQOEf-15" target="L4X4qG2Bdi_U11OIQOEf-25" edge="1">
          <mxGeometry relative="1" as="geometry">
            <Array as="points">
              <mxPoint x="280" y="313" />
              <mxPoint x="280" y="433" />
            </Array>
          </mxGeometry>
        </mxCell>
        <mxCell id="L4X4qG2Bdi_U11OIQOEf-15" value="" style="html=1;shape=mxgraph.electrical.electro-mechanical.singleSwitch;aspect=fixed;elSwitchState=off;" parent="1" vertex="1">
          <mxGeometry x="204" y="297" width="75" height="20" as="geometry" />
        </mxCell>
        <mxCell id="L4X4qG2Bdi_U11OIQOEf-16" value="" style="pointerEvents=1;verticalLabelPosition=bottom;shadow=0;dashed=0;align=center;html=1;verticalAlign=top;shape=mxgraph.electrical.resistors.resistor_2;" parent="1" vertex="1">
          <mxGeometry x="105" y="383" width="100" height="20" as="geometry" />
        </mxCell>
        <mxCell id="L4X4qG2Bdi_U11OIQOEf-17" value="" style="pointerEvents=1;verticalLabelPosition=bottom;shadow=0;dashed=0;align=center;html=1;verticalAlign=top;shape=mxgraph.electrical.resistors.resistor_2;" parent="1" vertex="1">
          <mxGeometry x="105" y="423" width="100" height="20" as="geometry" />
        </mxCell>
        <mxCell id="L4X4qG2Bdi_U11OIQOEf-18" value="" style="pointerEvents=1;verticalLabelPosition=bottom;shadow=0;dashed=0;align=center;html=1;verticalAlign=top;shape=mxgraph.electrical.resistors.resistor_2;" parent="1" vertex="1">
          <mxGeometry x="105" y="343" width="100" height="20" as="geometry" />
        </mxCell>
        <mxCell id="L4X4qG2Bdi_U11OIQOEf-19" value="" style="pointerEvents=1;verticalLabelPosition=bottom;shadow=0;dashed=0;align=center;html=1;verticalAlign=top;shape=mxgraph.electrical.resistors.resistor_2;" parent="1" vertex="1">
          <mxGeometry x="105" y="303" width="100" height="20" as="geometry" />
        </mxCell>
        <mxCell id="L4X4qG2Bdi_U11OIQOEf-21" value="" style="html=1;shape=mxgraph.electrical.electro-mechanical.singleSwitch;aspect=fixed;elSwitchState=off;" parent="1" vertex="1">
          <mxGeometry x="204" y="337" width="75" height="20" as="geometry" />
        </mxCell>
        <mxCell id="L4X4qG2Bdi_U11OIQOEf-24" value="" style="html=1;shape=mxgraph.electrical.electro-mechanical.singleSwitch;aspect=fixed;elSwitchState=off;" parent="1" vertex="1">
          <mxGeometry x="204" y="377" width="75" height="20" as="geometry" />
        </mxCell>
        <mxCell id="L4X4qG2Bdi_U11OIQOEf-25" value="" style="html=1;shape=mxgraph.electrical.electro-mechanical.singleSwitch;aspect=fixed;elSwitchState=off;" parent="1" vertex="1">
          <mxGeometry x="204" y="417" width="75" height="20" as="geometry" />
        </mxCell>
        <mxCell id="L4X4qG2Bdi_U11OIQOEf-31" style="edgeStyle=orthogonalEdgeStyle;rounded=0;orthogonalLoop=1;jettySize=auto;html=1;exitX=0;exitY=0.5;exitDx=0;exitDy=0;exitPerimeter=0;entryX=0;entryY=0.5;entryDx=0;entryDy=0;entryPerimeter=0;endArrow=none;endFill=0;" parent="1" source="L4X4qG2Bdi_U11OIQOEf-19" target="L4X4qG2Bdi_U11OIQOEf-17" edge="1">
          <mxGeometry relative="1" as="geometry">
            <Array as="points">
              <mxPoint x="105" y="373" />
              <mxPoint x="105" y="373" />
            </Array>
          </mxGeometry>
        </mxCell>
        <mxCell id="L4X4qG2Bdi_U11OIQOEf-33" style="edgeStyle=orthogonalEdgeStyle;rounded=0;orthogonalLoop=1;jettySize=auto;html=1;entryX=0.979;entryY=0.804;entryDx=0;entryDy=0;entryPerimeter=0;endArrow=none;endFill=0;" parent="1" source="L4X4qG2Bdi_U11OIQOEf-9" target="L4X4qG2Bdi_U11OIQOEf-25" edge="1">
          <mxGeometry relative="1" as="geometry" />
        </mxCell>
        <mxCell id="L4X4qG2Bdi_U11OIQOEf-35" style="edgeStyle=orthogonalEdgeStyle;rounded=0;orthogonalLoop=1;jettySize=auto;html=1;exitX=0;exitY=0.835;exitDx=0;exitDy=0;exitPerimeter=0;entryX=1;entryY=0.8;entryDx=0;entryDy=0;endArrow=none;endFill=0;" parent="1" source="L4X4qG2Bdi_U11OIQOEf-34" target="L4X4qG2Bdi_U11OIQOEf-15" edge="1">
          <mxGeometry relative="1" as="geometry">
            <Array as="points">
              <mxPoint x="225" y="268" />
              <mxPoint x="280" y="268" />
              <mxPoint x="280" y="313" />
            </Array>
          </mxGeometry>
        </mxCell>
        <mxCell id="L4X4qG2Bdi_U11OIQOEf-34" value="" style="verticalLabelPosition=bottom;shadow=0;dashed=0;align=center;html=1;verticalAlign=top;shape=mxgraph.electrical.abstract.operational_amp_1;direction=north;" parent="1" vertex="1">
          <mxGeometry x="150" y="140" width="90" height="98" as="geometry" />
        </mxCell>
        <mxCell id="L4X4qG2Bdi_U11OIQOEf-36" style="edgeStyle=orthogonalEdgeStyle;rounded=0;orthogonalLoop=1;jettySize=auto;html=1;exitX=0;exitY=0.165;exitDx=0;exitDy=0;exitPerimeter=0;entryX=0;entryY=0.5;entryDx=0;entryDy=0;entryPerimeter=0;endArrow=none;endFill=0;" parent="1" source="L4X4qG2Bdi_U11OIQOEf-34" target="L4X4qG2Bdi_U11OIQOEf-19" edge="1">
          <mxGeometry relative="1" as="geometry">
            <Array as="points">
              <mxPoint x="165" y="271" />
              <mxPoint x="105" y="271" />
            </Array>
          </mxGeometry>
        </mxCell>
        <mxCell id="L4X4qG2Bdi_U11OIQOEf-39" value="&lt;font style=&quot;font-size: 18px;&quot;&gt;DUT&lt;/font&gt;" style="pointerEvents=1;verticalLabelPosition=bottom;shadow=0;dashed=0;align=center;html=1;verticalAlign=top;shape=mxgraph.electrical.resistors.resistor_1;" parent="1" vertex="1">
          <mxGeometry x="170" y="830" width="100" height="20" as="geometry" />
        </mxCell>
        <mxCell id="L4X4qG2Bdi_U11OIQOEf-40" style="edgeStyle=orthogonalEdgeStyle;rounded=0;orthogonalLoop=1;jettySize=auto;html=1;entryX=1;entryY=0.5;entryDx=0;entryDy=0;entryPerimeter=0;endArrow=none;endFill=0;exitX=0.5;exitY=1;exitDx=0;exitDy=0;exitPerimeter=0;" parent="1" source="L4X4qG2Bdi_U11OIQOEf-84" target="L4X4qG2Bdi_U11OIQOEf-39" edge="1">
          <mxGeometry relative="1" as="geometry">
            <mxPoint x="430" y="603" as="sourcePoint" />
            <Array as="points">
              <mxPoint x="420" y="603" />
              <mxPoint x="420" y="840" />
            </Array>
          </mxGeometry>
        </mxCell>
        <mxCell id="L4X4qG2Bdi_U11OIQOEf-42" value="&lt;font style=&quot;font-size: 18px;&quot;&gt;L&lt;sub&gt;CUR&lt;/sub&gt;&lt;/font&gt;" style="edgeLabel;html=1;align=center;verticalAlign=middle;resizable=0;points=[];" parent="L4X4qG2Bdi_U11OIQOEf-40" vertex="1" connectable="0">
          <mxGeometry x="-0.1854" y="1" relative="1" as="geometry">
            <mxPoint y="46" as="offset" />
          </mxGeometry>
        </mxCell>
        <mxCell id="L4X4qG2Bdi_U11OIQOEf-41" style="edgeStyle=orthogonalEdgeStyle;rounded=0;orthogonalLoop=1;jettySize=auto;html=1;entryX=0;entryY=0.5;entryDx=0;entryDy=0;entryPerimeter=0;endArrow=none;endFill=0;" parent="1" source="L4X4qG2Bdi_U11OIQOEf-17" target="L4X4qG2Bdi_U11OIQOEf-39" edge="1">
          <mxGeometry relative="1" as="geometry">
            <Array as="points">
              <mxPoint x="20" y="433" />
              <mxPoint x="20" y="840" />
            </Array>
          </mxGeometry>
        </mxCell>
        <mxCell id="L4X4qG2Bdi_U11OIQOEf-43" value="&lt;font style=&quot;font-size: 18px;&quot;&gt;H&lt;sub&gt;CUR&lt;/sub&gt;&lt;/font&gt;" style="edgeLabel;html=1;align=center;verticalAlign=middle;resizable=0;points=[];" parent="L4X4qG2Bdi_U11OIQOEf-41" vertex="1" connectable="0">
          <mxGeometry x="0.0534" relative="1" as="geometry">
            <mxPoint y="74" as="offset" />
          </mxGeometry>
        </mxCell>
        <mxCell id="RZElUII5Cmr6FqrbFvTH-21" style="edgeStyle=orthogonalEdgeStyle;rounded=0;orthogonalLoop=1;jettySize=auto;html=1;exitX=0.804;exitY=0.397;exitDx=0;exitDy=0;exitPerimeter=0;entryX=0;entryY=0.761;entryDx=0;entryDy=0;entryPerimeter=0;endArrow=none;endFill=0;" edge="1" parent="1" source="L4X4qG2Bdi_U11OIQOEf-44" target="RZElUII5Cmr6FqrbFvTH-5">
          <mxGeometry relative="1" as="geometry">
            <mxPoint x="230" y="580" as="targetPoint" />
            <mxPoint x="230.00228161668838" y="622" as="sourcePoint" />
            <Array as="points">
              <mxPoint x="228" y="530" />
              <mxPoint x="-40" y="530" />
              <mxPoint x="-40" y="-110" />
            </Array>
          </mxGeometry>
        </mxCell>
        <mxCell id="L4X4qG2Bdi_U11OIQOEf-44" value="" style="verticalLabelPosition=bottom;shadow=0;dashed=0;align=center;html=1;verticalAlign=top;shape=mxgraph.electrical.abstract.operational_amp_1;direction=east;rotation=-90;flipV=1;" parent="1" vertex="1">
          <mxGeometry x="170" y="626" width="98" height="90" as="geometry" />
        </mxCell>
        <mxCell id="L4X4qG2Bdi_U11OIQOEf-45" style="edgeStyle=orthogonalEdgeStyle;rounded=0;orthogonalLoop=1;jettySize=auto;html=1;exitX=0;exitY=0.165;exitDx=0;exitDy=0;exitPerimeter=0;entryX=1;entryY=0.5;entryDx=0;entryDy=0;entryPerimeter=0;endArrow=none;endFill=0;" parent="1" source="L4X4qG2Bdi_U11OIQOEf-44" target="L4X4qG2Bdi_U11OIQOEf-39" edge="1">
          <mxGeometry relative="1" as="geometry" />
        </mxCell>
        <mxCell id="L4X4qG2Bdi_U11OIQOEf-47" value="&lt;font style=&quot;font-size: 18px;&quot;&gt;L&lt;sub&gt;POT&lt;/sub&gt;&lt;/font&gt;" style="edgeLabel;html=1;align=center;verticalAlign=middle;resizable=0;points=[];" parent="L4X4qG2Bdi_U11OIQOEf-45" vertex="1" connectable="0">
          <mxGeometry x="0.409" y="-1" relative="1" as="geometry">
            <mxPoint y="-7" as="offset" />
          </mxGeometry>
        </mxCell>
        <mxCell id="L4X4qG2Bdi_U11OIQOEf-46" style="edgeStyle=orthogonalEdgeStyle;rounded=0;orthogonalLoop=1;jettySize=auto;html=1;exitX=0;exitY=0.835;exitDx=0;exitDy=0;exitPerimeter=0;entryX=0;entryY=0.5;entryDx=0;entryDy=0;entryPerimeter=0;endArrow=none;endFill=0;" parent="1" source="L4X4qG2Bdi_U11OIQOEf-44" target="L4X4qG2Bdi_U11OIQOEf-39" edge="1">
          <mxGeometry relative="1" as="geometry" />
        </mxCell>
        <mxCell id="L4X4qG2Bdi_U11OIQOEf-49" value="&lt;font style=&quot;font-size: 18px;&quot;&gt;H&lt;sub&gt;POT&lt;/sub&gt;&lt;/font&gt;" style="edgeLabel;html=1;align=center;verticalAlign=middle;resizable=0;points=[];" parent="L4X4qG2Bdi_U11OIQOEf-46" vertex="1" connectable="0">
          <mxGeometry x="0.3644" y="-1" relative="1" as="geometry">
            <mxPoint x="1" y="-3" as="offset" />
          </mxGeometry>
        </mxCell>
        <mxCell id="L4X4qG2Bdi_U11OIQOEf-51" style="edgeStyle=orthogonalEdgeStyle;rounded=0;orthogonalLoop=1;jettySize=auto;html=1;entryX=0.6;entryY=0.95;entryDx=0;entryDy=0;entryPerimeter=0;endArrow=none;endFill=0;exitX=0.5;exitY=1;exitDx=0;exitDy=0;" parent="1" source="L4X4qG2Bdi_U11OIQOEf-81" target="L4X4qG2Bdi_U11OIQOEf-9" edge="1">
          <mxGeometry relative="1" as="geometry">
            <mxPoint x="621.5" y="390" as="targetPoint" />
            <mxPoint x="629.4999999999995" y="317" as="sourcePoint" />
          </mxGeometry>
        </mxCell>
        <mxCell id="L4X4qG2Bdi_U11OIQOEf-73" style="edgeStyle=orthogonalEdgeStyle;rounded=0;orthogonalLoop=1;jettySize=auto;html=1;entryX=0.5;entryY=0;entryDx=0;entryDy=0;" parent="1" source="L4X4qG2Bdi_U11OIQOEf-53" target="L4X4qG2Bdi_U11OIQOEf-71" edge="1">
          <mxGeometry relative="1" as="geometry" />
        </mxCell>
        <mxCell id="L4X4qG2Bdi_U11OIQOEf-53" value="" style="verticalLabelPosition=bottom;shadow=0;dashed=0;align=center;html=1;verticalAlign=top;shape=mxgraph.electrical.abstract.dac;rotation=-180;" parent="1" vertex="1">
          <mxGeometry x="538" y="-68" width="140" height="76" as="geometry" />
        </mxCell>
        <mxCell id="L4X4qG2Bdi_U11OIQOEf-74" style="edgeStyle=orthogonalEdgeStyle;rounded=0;orthogonalLoop=1;jettySize=auto;html=1;entryX=0.5;entryY=0;entryDx=0;entryDy=0;" parent="1" source="L4X4qG2Bdi_U11OIQOEf-56" target="L4X4qG2Bdi_U11OIQOEf-72" edge="1">
          <mxGeometry relative="1" as="geometry" />
        </mxCell>
        <mxCell id="L4X4qG2Bdi_U11OIQOEf-56" value="" style="verticalLabelPosition=bottom;shadow=0;dashed=0;align=center;html=1;verticalAlign=top;shape=mxgraph.electrical.abstract.dac;rotation=-180;" parent="1" vertex="1">
          <mxGeometry x="538" y="-158" width="140" height="76" as="geometry" />
        </mxCell>
        <mxCell id="L4X4qG2Bdi_U11OIQOEf-57" value="" style="rounded=1;whiteSpace=wrap;html=1;direction=south;fillColor=none;" parent="1" vertex="1">
          <mxGeometry x="204" y="293" width="96" height="157" as="geometry" />
        </mxCell>
        <mxCell id="L4X4qG2Bdi_U11OIQOEf-59" style="edgeStyle=orthogonalEdgeStyle;rounded=0;orthogonalLoop=1;jettySize=auto;html=1;endArrow=none;endFill=0;exitX=0.805;exitY=0.605;exitDx=0;exitDy=0;exitPerimeter=0;entryX=0;entryY=0.326;entryDx=0;entryDy=0;entryPerimeter=0;" parent="1" source="L4X4qG2Bdi_U11OIQOEf-44" target="RZElUII5Cmr6FqrbFvTH-5" edge="1">
          <mxGeometry relative="1" as="geometry">
            <Array as="points">
              <mxPoint x="210" y="550" />
              <mxPoint x="-60" y="550" />
              <mxPoint x="-60" y="-130" />
            </Array>
            <mxPoint x="200" y="620" as="sourcePoint" />
            <mxPoint x="320" y="-130" as="targetPoint" />
          </mxGeometry>
        </mxCell>
        <mxCell id="L4X4qG2Bdi_U11OIQOEf-60" value="&lt;span style=&quot;font-size: 18px;&quot;&gt;ADC&lt;/span&gt;" style="text;html=1;align=center;verticalAlign=middle;resizable=0;points=[];autosize=1;strokeColor=none;fillColor=none;" parent="1" vertex="1">
          <mxGeometry x="593" y="-142" width="60" height="40" as="geometry" />
        </mxCell>
        <mxCell id="L4X4qG2Bdi_U11OIQOEf-61" value="&lt;span style=&quot;font-size: 18px;&quot;&gt;ADC&lt;/span&gt;" style="text;html=1;align=center;verticalAlign=middle;resizable=0;points=[];autosize=1;strokeColor=none;fillColor=none;" parent="1" vertex="1">
          <mxGeometry x="593" y="-52" width="60" height="40" as="geometry" />
        </mxCell>
        <mxCell id="L4X4qG2Bdi_U11OIQOEf-63" style="edgeStyle=orthogonalEdgeStyle;rounded=0;orthogonalLoop=1;jettySize=auto;html=1;entryX=0.36;entryY=0.844;entryDx=0;entryDy=0;exitX=0;exitY=0.25;exitDx=0;exitDy=0;entryPerimeter=0;" parent="1" source="L4X4qG2Bdi_U11OIQOEf-62" target="L4X4qG2Bdi_U11OIQOEf-34" edge="1">
          <mxGeometry relative="1" as="geometry">
            <Array as="points">
              <mxPoint x="320" y="59" />
              <mxPoint x="320" y="203" />
            </Array>
          </mxGeometry>
        </mxCell>
        <mxCell id="L4X4qG2Bdi_U11OIQOEf-65" style="edgeStyle=orthogonalEdgeStyle;rounded=0;orthogonalLoop=1;jettySize=auto;html=1;exitX=0;exitY=0.5;exitDx=0;exitDy=0;entryX=0.5;entryY=0;entryDx=0;entryDy=0;" parent="1" source="L4X4qG2Bdi_U11OIQOEf-62" target="L4X4qG2Bdi_U11OIQOEf-57" edge="1">
          <mxGeometry relative="1" as="geometry">
            <Array as="points">
              <mxPoint x="350" y="78" />
              <mxPoint x="350" y="372" />
            </Array>
          </mxGeometry>
        </mxCell>
        <mxCell id="L4X4qG2Bdi_U11OIQOEf-66" style="edgeStyle=orthogonalEdgeStyle;rounded=0;orthogonalLoop=1;jettySize=auto;html=1;exitX=0;exitY=0.75;exitDx=0;exitDy=0;entryX=0.313;entryY=0.145;entryDx=0;entryDy=0;entryPerimeter=0;" parent="1" source="L4X4qG2Bdi_U11OIQOEf-62" target="L4X4qG2Bdi_U11OIQOEf-44" edge="1">
          <mxGeometry relative="1" as="geometry">
            <mxPoint x="340" y="510" as="targetPoint" />
            <Array as="points">
              <mxPoint x="380" y="98" />
              <mxPoint x="380" y="689" />
            </Array>
          </mxGeometry>
        </mxCell>
        <mxCell id="L4X4qG2Bdi_U11OIQOEf-62" value="&lt;span style=&quot;font-size: 18px;&quot;&gt;Range&lt;br&gt;Control&lt;/span&gt;" style="rounded=1;whiteSpace=wrap;html=1;" parent="1" vertex="1">
          <mxGeometry x="558" y="40" width="120" height="77" as="geometry" />
        </mxCell>
        <mxCell id="L4X4qG2Bdi_U11OIQOEf-70" style="edgeStyle=orthogonalEdgeStyle;rounded=0;orthogonalLoop=1;jettySize=auto;html=1;entryX=1;entryY=0.5;entryDx=0;entryDy=0;" parent="1" source="L4X4qG2Bdi_U11OIQOEf-67" target="L4X4qG2Bdi_U11OIQOEf-62" edge="1">
          <mxGeometry relative="1" as="geometry" />
        </mxCell>
        <mxCell id="L4X4qG2Bdi_U11OIQOEf-67" value="" style="shape=offPageConnector;whiteSpace=wrap;html=1;direction=north;size=0.125;rotation=-180;" parent="1" vertex="1">
          <mxGeometry x="730" y="68.5" width="80" height="20" as="geometry" />
        </mxCell>
        <mxCell id="L4X4qG2Bdi_U11OIQOEf-69" value="&lt;span style=&quot;color: rgb(0, 0, 0); font-family: Helvetica; font-size: 18px; font-style: normal; font-variant-ligatures: normal; font-variant-caps: normal; font-weight: 400; letter-spacing: normal; orphans: 2; text-indent: 0px; text-transform: none; widows: 2; word-spacing: 0px; -webkit-text-stroke-width: 0px; white-space: nowrap; background-color: rgb(251, 251, 251); text-decoration-thickness: initial; text-decoration-style: initial; text-decoration-color: initial; float: none; display: inline !important;&quot;&gt;Range Selection&lt;br&gt;(From FPGA)&lt;/span&gt;" style="text;whiteSpace=wrap;html=1;align=center;" parent="1" vertex="1">
          <mxGeometry x="820" y="49.25" width="140" height="58.5" as="geometry" />
        </mxCell>
        <mxCell id="L4X4qG2Bdi_U11OIQOEf-71" value="" style="shape=offPageConnector;whiteSpace=wrap;html=1;direction=north;size=0.125;rotation=0;" parent="1" vertex="1">
          <mxGeometry x="730" y="-40" width="80" height="20" as="geometry" />
        </mxCell>
        <mxCell id="L4X4qG2Bdi_U11OIQOEf-72" value="" style="shape=offPageConnector;whiteSpace=wrap;html=1;direction=north;size=0.125;rotation=0;" parent="1" vertex="1">
          <mxGeometry x="730" y="-130" width="80" height="20" as="geometry" />
        </mxCell>
        <mxCell id="L4X4qG2Bdi_U11OIQOEf-75" value="&lt;span style=&quot;color: rgb(0, 0, 0); font-family: Helvetica; font-size: 18px; font-style: normal; font-variant-ligatures: normal; font-variant-caps: normal; font-weight: 400; letter-spacing: normal; orphans: 2; text-indent: 0px; text-transform: none; widows: 2; word-spacing: 0px; -webkit-text-stroke-width: 0px; white-space: nowrap; background-color: rgb(251, 251, 251); text-decoration-thickness: initial; text-decoration-style: initial; text-decoration-color: initial; float: none; display: inline !important;&quot;&gt;ADC Voltage&lt;br&gt;(To FPGA)&lt;/span&gt;" style="text;whiteSpace=wrap;html=1;align=center;" parent="1" vertex="1">
          <mxGeometry x="820" y="-150" width="123" height="56" as="geometry" />
        </mxCell>
        <mxCell id="L4X4qG2Bdi_U11OIQOEf-76" value="&lt;span style=&quot;color: rgb(0, 0, 0); font-family: Helvetica; font-size: 18px; font-style: normal; font-variant-ligatures: normal; font-variant-caps: normal; font-weight: 400; letter-spacing: normal; orphans: 2; text-indent: 0px; text-transform: none; widows: 2; word-spacing: 0px; -webkit-text-stroke-width: 0px; white-space: nowrap; background-color: rgb(251, 251, 251); text-decoration-thickness: initial; text-decoration-style: initial; text-decoration-color: initial; float: none; display: inline !important;&quot;&gt;ADC Current&lt;br&gt;(To FPGA)&lt;/span&gt;" style="text;whiteSpace=wrap;html=1;align=center;" parent="1" vertex="1">
          <mxGeometry x="820" y="-56" width="123" height="56" as="geometry" />
        </mxCell>
        <mxCell id="L4X4qG2Bdi_U11OIQOEf-77" value="" style="shape=offPageConnector;whiteSpace=wrap;html=1;direction=north;size=0.125;rotation=-180;" parent="1" vertex="1">
          <mxGeometry x="931.5" y="508" width="80" height="20" as="geometry" />
        </mxCell>
        <mxCell id="L4X4qG2Bdi_U11OIQOEf-78" value="&lt;span style=&quot;color: rgb(0, 0, 0); font-family: Helvetica; font-size: 18px; font-style: normal; font-variant-ligatures: normal; font-variant-caps: normal; font-weight: 400; letter-spacing: normal; orphans: 2; text-indent: 0px; text-transform: none; widows: 2; word-spacing: 0px; -webkit-text-stroke-width: 0px; white-space: nowrap; background-color: rgb(251, 251, 251); text-decoration-thickness: initial; text-decoration-style: initial; text-decoration-color: initial; float: none; display: inline !important;&quot;&gt;DAC DATA&lt;br&gt;(From FPGA)&lt;/span&gt;" style="text;whiteSpace=wrap;html=1;align=center;" parent="1" vertex="1">
          <mxGeometry x="1021.5" y="489.5" width="140" height="58.5" as="geometry" />
        </mxCell>
        <mxCell id="L4X4qG2Bdi_U11OIQOEf-80" style="edgeStyle=orthogonalEdgeStyle;rounded=0;orthogonalLoop=1;jettySize=auto;html=1;entryX=0;entryY=0.5;entryDx=0;entryDy=0;entryPerimeter=0;" parent="1" source="L4X4qG2Bdi_U11OIQOEf-77" target="L4X4qG2Bdi_U11OIQOEf-2" edge="1">
          <mxGeometry relative="1" as="geometry" />
        </mxCell>
        <mxCell id="L4X4qG2Bdi_U11OIQOEf-81" value="" style="shape=offPageConnector;whiteSpace=wrap;html=1;direction=north;size=0.125;rotation=-180;" parent="1" vertex="1">
          <mxGeometry x="931.5" y="318.5" width="80" height="20" as="geometry" />
        </mxCell>
        <mxCell id="L4X4qG2Bdi_U11OIQOEf-82" value="&lt;span style=&quot;color: rgb(0, 0, 0); font-family: Helvetica; font-size: 18px; font-style: normal; font-variant-ligatures: normal; font-variant-caps: normal; font-weight: 400; letter-spacing: normal; orphans: 2; text-indent: 0px; text-transform: none; widows: 2; word-spacing: 0px; -webkit-text-stroke-width: 0px; white-space: nowrap; background-color: rgb(251, 251, 251); text-decoration-thickness: initial; text-decoration-style: initial; text-decoration-color: initial; float: none; display: inline !important;&quot;&gt;DAC Range&lt;br&gt;(From FPGA)&lt;/span&gt;" style="text;whiteSpace=wrap;html=1;align=center;" parent="1" vertex="1">
          <mxGeometry x="1021.5" y="303" width="140" height="58.5" as="geometry" />
        </mxCell>
        <mxCell id="L4X4qG2Bdi_U11OIQOEf-84" value="" style="pointerEvents=1;verticalLabelPosition=bottom;shadow=0;dashed=0;align=center;html=1;verticalAlign=top;shape=mxgraph.electrical.signal_sources.source;aspect=fixed;points=[[0.5,0,0],[1,0.5,0],[0.5,1,0],[0,0.5,0]];elSourceType=dependent;elSignalType=dc3;rotation=90;" parent="1" vertex="1">
          <mxGeometry x="498" y="573" width="60" height="60" as="geometry" />
        </mxCell>
        <mxCell id="L4X4qG2Bdi_U11OIQOEf-85" style="edgeStyle=orthogonalEdgeStyle;rounded=0;orthogonalLoop=1;jettySize=auto;html=1;exitX=0.5;exitY=0;exitDx=0;exitDy=0;exitPerimeter=0;entryX=1;entryY=0.5;entryDx=0;entryDy=0;entryPerimeter=0;endArrow=none;endFill=0;" parent="1" source="L4X4qG2Bdi_U11OIQOEf-84" target="L4X4qG2Bdi_U11OIQOEf-10" edge="1">
          <mxGeometry relative="1" as="geometry" />
        </mxCell>
        <mxCell id="L4X4qG2Bdi_U11OIQOEf-86" value="" style="shape=offPageConnector;whiteSpace=wrap;html=1;direction=north;size=0.125;rotation=-180;" parent="1" vertex="1">
          <mxGeometry x="931.5" y="670" width="80" height="20" as="geometry" />
        </mxCell>
        <mxCell id="L4X4qG2Bdi_U11OIQOEf-87" value="&lt;span style=&quot;color: rgb(0, 0, 0); font-family: Helvetica; font-size: 18px; font-style: normal; font-variant-ligatures: normal; font-variant-caps: normal; font-weight: 400; letter-spacing: normal; orphans: 2; text-indent: 0px; text-transform: none; widows: 2; word-spacing: 0px; -webkit-text-stroke-width: 0px; white-space: nowrap; background-color: rgb(251, 251, 251); text-decoration-thickness: initial; text-decoration-style: initial; text-decoration-color: initial; float: none; display: inline !important;&quot;&gt;DC Bias&lt;br&gt;(From MCU)&lt;/span&gt;" style="text;whiteSpace=wrap;html=1;align=center;" parent="1" vertex="1">
          <mxGeometry x="1011.5" y="650.75" width="140" height="58.5" as="geometry" />
        </mxCell>
        <mxCell id="L4X4qG2Bdi_U11OIQOEf-88" style="edgeStyle=orthogonalEdgeStyle;rounded=0;orthogonalLoop=1;jettySize=auto;html=1;entryX=1;entryY=0.5;entryDx=0;entryDy=0;entryPerimeter=0;" parent="1" source="L4X4qG2Bdi_U11OIQOEf-86" target="L4X4qG2Bdi_U11OIQOEf-84" edge="1">
          <mxGeometry relative="1" as="geometry" />
        </mxCell>
        <mxCell id="L4X4qG2Bdi_U11OIQOEf-90" value="&lt;span style=&quot;font-size: 18px; text-wrap-mode: nowrap;&quot;&gt;Bias Source&lt;/span&gt;" style="text;whiteSpace=wrap;html=1;align=center;" parent="1" vertex="1">
          <mxGeometry x="458" y="538" width="140" height="34" as="geometry" />
        </mxCell>
        <mxCell id="L4X4qG2Bdi_U11OIQOEf-91" value="&lt;span style=&quot;font-size: 18px; text-wrap-mode: nowrap;&quot;&gt;PGA&lt;/span&gt;" style="text;whiteSpace=wrap;html=1;align=center;" parent="1" vertex="1">
          <mxGeometry x="579.75" y="626" width="76.5" height="34" as="geometry" />
        </mxCell>
        <mxCell id="L4X4qG2Bdi_U11OIQOEf-92" value="&lt;span style=&quot;font-size: 18px; text-wrap-mode: nowrap;&quot;&gt;PGA&lt;/span&gt;" style="text;whiteSpace=wrap;html=1;align=center;" parent="1" vertex="1">
          <mxGeometry x="569.75" y="450" width="76.5" height="34" as="geometry" />
        </mxCell>
        <mxCell id="RZElUII5Cmr6FqrbFvTH-1" value="&lt;span style=&quot;font-size: 18px; text-wrap-mode: nowrap;&quot;&gt;Reconstruction filter&lt;/span&gt;" style="text;whiteSpace=wrap;html=1;align=center;" vertex="1" parent="1">
          <mxGeometry x="680.75" y="626" width="178.5" height="34" as="geometry" />
        </mxCell>
        <mxCell id="RZElUII5Cmr6FqrbFvTH-2" value="&lt;span style=&quot;font-size: 18px; text-wrap-mode: nowrap;&quot;&gt;Reconstruction filter&lt;/span&gt;" style="text;whiteSpace=wrap;html=1;align=center;" vertex="1" parent="1">
          <mxGeometry x="678" y="377" width="178.5" height="34" as="geometry" />
        </mxCell>
        <mxCell id="RZElUII5Cmr6FqrbFvTH-3" value="&lt;span style=&quot;font-size: 18px; text-wrap-mode: nowrap;&quot;&gt;Range Resistors&lt;/span&gt;" style="text;whiteSpace=wrap;html=1;align=center;" vertex="1" parent="1">
          <mxGeometry x="105.75" y="464" width="178.5" height="34" as="geometry" />
        </mxCell>
        <mxCell id="RZElUII5Cmr6FqrbFvTH-5" value="" style="verticalLabelPosition=bottom;shadow=0;dashed=0;align=center;html=1;verticalAlign=top;shape=mxgraph.electrical.logic_gates.lowpass_filter;" vertex="1" parent="1">
          <mxGeometry x="350" y="-145" width="52" height="46" as="geometry" />
        </mxCell>
        <mxCell id="RZElUII5Cmr6FqrbFvTH-17" style="edgeStyle=orthogonalEdgeStyle;rounded=0;orthogonalLoop=1;jettySize=auto;html=1;exitX=0;exitY=0.761;exitDx=0;exitDy=0;exitPerimeter=0;entryX=0.768;entryY=0.623;entryDx=0;entryDy=0;entryPerimeter=0;endArrow=none;endFill=0;" edge="1" parent="1" source="RZElUII5Cmr6FqrbFvTH-8" target="L4X4qG2Bdi_U11OIQOEf-34">
          <mxGeometry relative="1" as="geometry">
            <mxPoint x="320" as="targetPoint" />
          </mxGeometry>
        </mxCell>
        <mxCell id="RZElUII5Cmr6FqrbFvTH-19" style="edgeStyle=orthogonalEdgeStyle;rounded=0;orthogonalLoop=1;jettySize=auto;html=1;exitX=1.003;exitY=0.761;exitDx=0;exitDy=0;exitPerimeter=0;entryX=0.907;entryY=0.368;entryDx=0;entryDy=0;entryPerimeter=0;endArrow=none;endFill=0;" edge="1" parent="1" source="RZElUII5Cmr6FqrbFvTH-8" target="L4X4qG2Bdi_U11OIQOEf-53">
          <mxGeometry relative="1" as="geometry">
            <mxPoint x="510" y="-20" as="targetPoint" />
          </mxGeometry>
        </mxCell>
        <mxCell id="RZElUII5Cmr6FqrbFvTH-8" value="" style="verticalLabelPosition=bottom;shadow=0;dashed=0;align=center;html=1;verticalAlign=top;shape=mxgraph.electrical.logic_gates.lowpass_filter;" vertex="1" parent="1">
          <mxGeometry x="350" y="-55" width="52" height="46" as="geometry" />
        </mxCell>
        <mxCell id="RZElUII5Cmr6FqrbFvTH-12" value="&lt;span style=&quot;font-size: 18px; text-wrap-mode: nowrap;&quot;&gt;Anti-aliasing filter&lt;/span&gt;" style="text;whiteSpace=wrap;html=1;align=center;" vertex="1" parent="1">
          <mxGeometry x="286.75" y="-184" width="178.5" height="34" as="geometry" />
        </mxCell>
        <mxCell id="RZElUII5Cmr6FqrbFvTH-13" value="&lt;span style=&quot;font-size: 18px; text-wrap-mode: nowrap;&quot;&gt;Anti-aliasing filter&lt;/span&gt;" style="text;whiteSpace=wrap;html=1;align=center;" vertex="1" parent="1">
          <mxGeometry x="286.75" y="-90" width="178.5" height="34" as="geometry" />
        </mxCell>
        <mxCell id="RZElUII5Cmr6FqrbFvTH-14" value="&lt;span style=&quot;font-size: 18px; text-wrap-mode: nowrap;&quot;&gt;PGA&lt;/span&gt;" style="text;whiteSpace=wrap;html=1;align=center;" vertex="1" parent="1">
          <mxGeometry x="105" y="140" width="76.5" height="34" as="geometry" />
        </mxCell>
        <mxCell id="RZElUII5Cmr6FqrbFvTH-15" value="&lt;span style=&quot;font-size: 18px; text-wrap-mode: nowrap;&quot;&gt;PGA&lt;/span&gt;" style="text;whiteSpace=wrap;html=1;align=center;" vertex="1" parent="1">
          <mxGeometry x="127.5" y="626" width="76.5" height="34" as="geometry" />
        </mxCell>
        <mxCell id="RZElUII5Cmr6FqrbFvTH-16" style="edgeStyle=orthogonalEdgeStyle;rounded=0;orthogonalLoop=1;jettySize=auto;html=1;entryX=0.766;entryY=0.375;entryDx=0;entryDy=0;entryPerimeter=0;exitX=0;exitY=0.326;exitDx=0;exitDy=0;exitPerimeter=0;endArrow=none;endFill=0;" edge="1" parent="1" source="RZElUII5Cmr6FqrbFvTH-8" target="L4X4qG2Bdi_U11OIQOEf-34">
          <mxGeometry relative="1" as="geometry">
            <mxPoint x="340" y="-40" as="sourcePoint" />
          </mxGeometry>
        </mxCell>
        <mxCell id="RZElUII5Cmr6FqrbFvTH-18" style="edgeStyle=orthogonalEdgeStyle;rounded=0;orthogonalLoop=1;jettySize=auto;html=1;exitX=0.991;exitY=0.323;exitDx=0;exitDy=0;exitPerimeter=0;entryX=0.906;entryY=0.631;entryDx=0;entryDy=0;entryPerimeter=0;endArrow=none;endFill=0;" edge="1" parent="1" source="RZElUII5Cmr6FqrbFvTH-8" target="L4X4qG2Bdi_U11OIQOEf-53">
          <mxGeometry relative="1" as="geometry">
            <mxPoint x="530" y="-50" as="targetPoint" />
          </mxGeometry>
        </mxCell>
        <mxCell id="RZElUII5Cmr6FqrbFvTH-23" style="edgeStyle=orthogonalEdgeStyle;rounded=0;orthogonalLoop=1;jettySize=auto;html=1;entryX=0.906;entryY=0.627;entryDx=0;entryDy=0;entryPerimeter=0;endArrow=none;endFill=0;" edge="1" parent="1" source="RZElUII5Cmr6FqrbFvTH-5" target="L4X4qG2Bdi_U11OIQOEf-56">
          <mxGeometry relative="1" as="geometry">
            <Array as="points">
              <mxPoint x="470" y="-130" />
            </Array>
          </mxGeometry>
        </mxCell>
        <mxCell id="RZElUII5Cmr6FqrbFvTH-24" style="edgeStyle=orthogonalEdgeStyle;rounded=0;orthogonalLoop=1;jettySize=auto;html=1;entryX=0.91;entryY=0.373;entryDx=0;entryDy=0;entryPerimeter=0;endArrow=none;endFill=0;" edge="1" parent="1" source="RZElUII5Cmr6FqrbFvTH-5" target="L4X4qG2Bdi_U11OIQOEf-56">
          <mxGeometry relative="1" as="geometry">
            <Array as="points">
              <mxPoint x="470" y="-110" />
            </Array>
          </mxGeometry>
        </mxCell>
      </root>
    </mxGraphModel>
  </diagram>
</mxfile>
